<mxfile host="app.diagrams.net" modified="2022-04-05T06:11:19.756Z" agent="5.0 (Windows NT 10.0; Win64; x64) AppleWebKit/537.36 (KHTML, like Gecko) Chrome/100.0.4896.75 Safari/537.36" etag="sew4o86VI6Wd-51TBUVq" version="17.4.0" type="github">
  <diagram id="Edgup79GKKE9PIc2xaaE" name="Page-1">
    <mxGraphModel dx="1248" dy="677" grid="1" gridSize="10" guides="1" tooltips="1" connect="1" arrows="1" fold="1" page="1" pageScale="1" pageWidth="1169" pageHeight="827" math="0" shadow="0">
      <root>
        <mxCell id="0" />
        <mxCell id="1" parent="0" />
        <mxCell id="m4aUaqftkgkUH58dzJB9-1" value="Client Application" style="rounded=0;whiteSpace=wrap;html=1;" vertex="1" parent="1">
          <mxGeometry x="370" y="230" width="120" height="100" as="geometry" />
        </mxCell>
        <mxCell id="m4aUaqftkgkUH58dzJB9-2" value="Identity Server" style="rounded=0;whiteSpace=wrap;html=1;" vertex="1" parent="1">
          <mxGeometry x="570" y="80" width="120" height="60" as="geometry" />
        </mxCell>
        <mxCell id="m4aUaqftkgkUH58dzJB9-3" value="" style="endArrow=none;startArrow=classic;html=1;rounded=0;edgeStyle=orthogonalEdgeStyle;exitX=-0.039;exitY=0.379;exitDx=0;exitDy=0;exitPerimeter=0;startFill=1;endFill=0;" edge="1" parent="1" source="m4aUaqftkgkUH58dzJB9-2">
          <mxGeometry width="50" height="50" relative="1" as="geometry">
            <mxPoint x="480" y="100" as="sourcePoint" />
            <mxPoint x="400" y="230" as="targetPoint" />
          </mxGeometry>
        </mxCell>
        <mxCell id="m4aUaqftkgkUH58dzJB9-4" value="Request Token by&amp;nbsp;&lt;br&gt;passing credentials in request&lt;br&gt;" style="text;html=1;align=center;verticalAlign=middle;resizable=0;points=[];autosize=1;strokeColor=none;fillColor=none;" vertex="1" parent="1">
          <mxGeometry x="400" y="70" width="170" height="30" as="geometry" />
        </mxCell>
        <mxCell id="m4aUaqftkgkUH58dzJB9-7" value="" style="endArrow=none;html=1;rounded=0;exitX=0.583;exitY=0;exitDx=0;exitDy=0;exitPerimeter=0;startArrow=classic;startFill=1;endFill=0;" edge="1" parent="1" source="m4aUaqftkgkUH58dzJB9-1">
          <mxGeometry width="50" height="50" relative="1" as="geometry">
            <mxPoint x="520" y="180" as="sourcePoint" />
            <mxPoint x="570" y="130" as="targetPoint" />
          </mxGeometry>
        </mxCell>
        <mxCell id="m4aUaqftkgkUH58dzJB9-8" value="Return Access token&lt;br&gt;in case of valid&lt;br&gt;credentials" style="text;html=1;align=center;verticalAlign=middle;resizable=0;points=[];autosize=1;strokeColor=none;fillColor=none;" vertex="1" parent="1">
          <mxGeometry x="410" y="130" width="130" height="50" as="geometry" />
        </mxCell>
        <mxCell id="m4aUaqftkgkUH58dzJB9-10" value="&lt;span&gt;2nd Microservice&lt;/span&gt;&lt;span&gt;	&lt;/span&gt;" style="rounded=0;whiteSpace=wrap;html=1;" vertex="1" parent="1">
          <mxGeometry x="804" y="180" width="120" height="60" as="geometry" />
        </mxCell>
        <mxCell id="m4aUaqftkgkUH58dzJB9-11" value="&lt;span&gt;3rd Microservice&lt;/span&gt;&lt;span&gt;	&lt;/span&gt;" style="rounded=0;whiteSpace=wrap;html=1;" vertex="1" parent="1">
          <mxGeometry x="803" y="270" width="120" height="60" as="geometry" />
        </mxCell>
        <mxCell id="m4aUaqftkgkUH58dzJB9-12" value="&lt;span&gt;4th Microservice&lt;/span&gt;&lt;span&gt;	&lt;/span&gt;" style="rounded=0;whiteSpace=wrap;html=1;" vertex="1" parent="1">
          <mxGeometry x="803" y="354" width="120" height="60" as="geometry" />
        </mxCell>
        <mxCell id="m4aUaqftkgkUH58dzJB9-13" value="1st&amp;nbsp;Microservice&lt;span style=&quot;white-space: pre&quot;&gt;	&lt;/span&gt;" style="rounded=0;whiteSpace=wrap;html=1;" vertex="1" parent="1">
          <mxGeometry x="803" y="90" width="120" height="60" as="geometry" />
        </mxCell>
        <mxCell id="m4aUaqftkgkUH58dzJB9-14" value="" style="endArrow=classic;startArrow=classic;html=1;rounded=0;" edge="1" parent="1">
          <mxGeometry width="50" height="50" relative="1" as="geometry">
            <mxPoint x="490" y="280" as="sourcePoint" />
            <mxPoint x="800" y="120" as="targetPoint" />
          </mxGeometry>
        </mxCell>
        <mxCell id="m4aUaqftkgkUH58dzJB9-15" value="" style="endArrow=classic;startArrow=classic;html=1;rounded=0;" edge="1" parent="1">
          <mxGeometry width="50" height="50" relative="1" as="geometry">
            <mxPoint x="490" y="280" as="sourcePoint" />
            <mxPoint x="800" y="210" as="targetPoint" />
          </mxGeometry>
        </mxCell>
        <mxCell id="m4aUaqftkgkUH58dzJB9-16" value="" style="endArrow=classic;startArrow=classic;html=1;rounded=0;" edge="1" parent="1">
          <mxGeometry width="50" height="50" relative="1" as="geometry">
            <mxPoint x="500" y="280" as="sourcePoint" />
            <mxPoint x="800" y="310" as="targetPoint" />
          </mxGeometry>
        </mxCell>
        <mxCell id="m4aUaqftkgkUH58dzJB9-17" value="" style="endArrow=classic;startArrow=classic;html=1;rounded=0;" edge="1" parent="1">
          <mxGeometry width="50" height="50" relative="1" as="geometry">
            <mxPoint x="490" y="280" as="sourcePoint" />
            <mxPoint x="790" y="380" as="targetPoint" />
          </mxGeometry>
        </mxCell>
        <mxCell id="m4aUaqftkgkUH58dzJB9-22" value="Token" style="text;html=1;align=center;verticalAlign=middle;resizable=0;points=[];autosize=1;strokeColor=none;fillColor=none;" vertex="1" parent="1">
          <mxGeometry x="585" y="190" width="50" height="20" as="geometry" />
        </mxCell>
        <mxCell id="m4aUaqftkgkUH58dzJB9-23" value="Token" style="text;html=1;align=center;verticalAlign=middle;resizable=0;points=[];autosize=1;strokeColor=none;fillColor=none;" vertex="1" parent="1">
          <mxGeometry x="630" y="220" width="50" height="20" as="geometry" />
        </mxCell>
        <mxCell id="m4aUaqftkgkUH58dzJB9-24" value="Token" style="text;html=1;align=center;verticalAlign=middle;resizable=0;points=[];autosize=1;strokeColor=none;fillColor=none;" vertex="1" parent="1">
          <mxGeometry x="660" y="270" width="50" height="20" as="geometry" />
        </mxCell>
        <mxCell id="m4aUaqftkgkUH58dzJB9-25" value="Token" style="text;html=1;align=center;verticalAlign=middle;resizable=0;points=[];autosize=1;strokeColor=none;fillColor=none;" vertex="1" parent="1">
          <mxGeometry x="660" y="320" width="50" height="20" as="geometry" />
        </mxCell>
      </root>
    </mxGraphModel>
  </diagram>
</mxfile>
